HIERARCHY
ROOT Hips
{
  OFFSET 5.84602e-005 68.8428 3.50346
  CHANNELS 6 Xposition Yposition Zposition Zrotation Xrotation Yrotation
  JOINT Spine
  {
    OFFSET 0 8.597 -4.6522
    CHANNELS 3 Zrotation Xrotation Yrotation
    JOINT Spine1
    {
      OFFSET 0 7.8454 0.4098
      CHANNELS 3 Zrotation Xrotation Yrotation
      JOINT Spine2
      {
        OFFSET 0 9.7078 -2.1609
        CHANNELS 3 Zrotation Xrotation Yrotation
        JOINT Neck
        {
          OFFSET 0 21.8761 -0.4549
          CHANNELS 3 Zrotation Xrotation Yrotation
          JOINT Head
          {
            OFFSET 0 12.3537 3.3602
            CHANNELS 3 Zrotation Xrotation Yrotation
            End Site
            {
              OFFSET 0.0001 18.9506 0.5657
            }
          }
        }
        JOINT LeftShoulder
        {
          OFFSET 2.2086 21.1115 7.2329
          CHANNELS 3 Zrotation Xrotation Yrotation
          JOINT LeftArm
          {
            OFFSET 13.1193 3.0282 -4.8998
            CHANNELS 3 Zrotation Xrotation Yrotation
            JOINT LeftForeArm
            {
              OFFSET 27.4081 -0.0973053 -0.2375
              CHANNELS 3 Zrotation Xrotation Yrotation
              JOINT LeftHand
              {
                OFFSET 22.8641 0.0662994 -0.1369
                CHANNELS 3 Zrotation Xrotation Yrotation
                JOINT LeftHandIndex1
                {
                  OFFSET 8.8614 0.775009 2.4612
                  CHANNELS 3 Zrotation Xrotation Yrotation
                  JOINT LeftHandIndex2
                  {
                    OFFSET 3.3146 -0.808304 0.5841
                    CHANNELS 3 Zrotation Xrotation Yrotation
                    JOINT LeftHandIndex3
                    {
                      OFFSET 2.2628 -0.552002 0.3989
                      CHANNELS 3 Zrotation Xrotation Yrotation
                      End Site
                      {
                        OFFSET 1.6102 -0.4807 0.2612
                      }
                    }
                  }
                }
                JOINT LeftHandMiddle1
                {
                  OFFSET 8.9937 0.895004 0.2143
                  CHANNELS 3 Zrotation Xrotation Yrotation
                  JOINT LeftHandMiddle2
                  {
                    OFFSET 4.0984 0.0113983 -0.0242
                    CHANNELS 3 Zrotation Xrotation Yrotation
                    JOINT LeftHandMiddle3
                    {
                      OFFSET 2.2716 0.00689697 -0.0138001
                      CHANNELS 3 Zrotation Xrotation Yrotation
                      End Site
                      {
                        OFFSET 2.0404 -0.1441 0.0027
                      }
                    }
                  }
                }
                JOINT LeftHandRing1
                {
                  OFFSET 8.5234 0.597198 -2.0164
                  CHANNELS 3 Zrotation Xrotation Yrotation
                  JOINT LeftHandRing2
                  {
                    OFFSET 3.7188 -0.188293 -0.2328
                    CHANNELS 3 Zrotation Xrotation Yrotation
                    JOINT LeftHandRing3
                    {
                      OFFSET 2.1191 -0.106598 -0.1332
                      CHANNELS 3 Zrotation Xrotation Yrotation
                      End Site
                      {
                        OFFSET 1.8737 -0.2304 -0.0886
                      }
                    }
                  }
                }
                JOINT LeftHandPinky1
                {
                  OFFSET 7.9094 -0.601089 -3.4825
                  CHANNELS 3 Zrotation Xrotation Yrotation
                  JOINT LeftHandPinky2
                  {
                    OFFSET 2.2874 -0.477005 -0.6314
                    CHANNELS 3 Zrotation Xrotation Yrotation
                    JOINT LeftHandPinky3
                    {
                      OFFSET 1.6774 -0.349396 -0.4633
                      CHANNELS 3 Zrotation Xrotation Yrotation
                      End Site
                      {
                        OFFSET 1.4888 -0.4091 -0.3416
                      }
                    }
                  }
                }
                JOINT LeftHandThumb1
                {
                  OFFSET 1.833 -1.3875 1.3896
                  CHANNELS 3 Zrotation Xrotation Yrotation
                  JOINT LeftHandThumb2
                  {
                    OFFSET 3.4129 -1.121 2.5732
                    CHANNELS 3 Zrotation Xrotation Yrotation
                    JOINT LeftHandThumb3
                    {
                      OFFSET 2.2474 -0.804199 1.6192
                      CHANNELS 3 Zrotation Xrotation Yrotation
                      End Site
                      {
                        OFFSET 1.6527 -0.5689 1.1317
                      }
                    }
                  }
                }
              }
            }
          }
        }
        JOINT RightShoulder
        {
          OFFSET -2.2086 21.1115 7.2329
          CHANNELS 3 Zrotation Xrotation Yrotation
          JOINT RightArm
          {
            OFFSET -13.1216 3.0287 -4.9007
            CHANNELS 3 Zrotation Xrotation Yrotation
            JOINT RightForeArm
            {
              OFFSET -27.4081 -0.0973053 -0.2375
              CHANNELS 3 Zrotation Xrotation Yrotation
              JOINT RightHand
              {
                OFFSET -22.8641 0.0664063 -0.1369
                CHANNELS 3 Zrotation Xrotation Yrotation
                JOINT RightHandIndex1
                {
                  OFFSET -8.8614 0.774994 2.4612
                  CHANNELS 3 Zrotation Xrotation Yrotation
                  JOINT RightHandIndex2
                  {
                    OFFSET -3.3146 -0.808304 0.5841
                    CHANNELS 3 Zrotation Xrotation Yrotation
                    JOINT RightHandIndex3
                    {
                      OFFSET -2.2628 -0.552002 0.3989
                      CHANNELS 3 Zrotation Xrotation Yrotation
                      End Site
                      {
                        OFFSET -1.6102 -0.4807 0.2612
                      }
                    }
                  }
                }
                JOINT RightHandMiddle1
                {
                  OFFSET -8.9937 0.894989 0.2143
                  CHANNELS 3 Zrotation Xrotation Yrotation
                  JOINT RightHandMiddle2
                  {
                    OFFSET -4.0984 0.0113983 -0.0242
                    CHANNELS 3 Zrotation Xrotation Yrotation
                    JOINT RightHandMiddle3
                    {
                      OFFSET -2.2716 0.00691223 -0.0138001
                      CHANNELS 3 Zrotation Xrotation Yrotation
                      End Site
                      {
                        OFFSET -2.0404 -0.1441 0.0027
                      }
                    }
                  }
                }
                JOINT RightHandRing1
                {
                  OFFSET -8.5234 0.597198 -2.0164
                  CHANNELS 3 Zrotation Xrotation Yrotation
                  JOINT RightHandRing2
                  {
                    OFFSET -3.7188 -0.188309 -0.2328
                    CHANNELS 3 Zrotation Xrotation Yrotation
                    JOINT RightHandRing3
                    {
                      OFFSET -2.1191 -0.106598 -0.1332
                      CHANNELS 3 Zrotation Xrotation Yrotation
                      End Site
                      {
                        OFFSET -1.8737 -0.2304 -0.0886
                      }
                    }
                  }
                }
                JOINT RightHandPinky1
                {
                  OFFSET -7.9094 -0.601105 -3.4825
                  CHANNELS 3 Zrotation Xrotation Yrotation
                  JOINT RightHandPinky2
                  {
                    OFFSET -2.2874 -0.477005 -0.6314
                    CHANNELS 3 Zrotation Xrotation Yrotation
                    JOINT RightHandPinky3
                    {
                      OFFSET -1.6774 -0.349396 -0.4633
                      CHANNELS 3 Zrotation Xrotation Yrotation
                      End Site
                      {
                        OFFSET -1.4888 -0.4091 -0.3416
                      }
                    }
                  }
                }
                JOINT RightHandThumb1
                {
                  OFFSET -1.833 -1.38751 1.3896
                  CHANNELS 3 Zrotation Xrotation Yrotation
                  JOINT RightHandThumb2
                  {
                    OFFSET -3.41299 -1.12099 2.5732
                    CHANNELS 3 Zrotation Xrotation Yrotation
                    JOINT RightHandThumb3
                    {
                      OFFSET -2.24741 -0.804108 1.6192
                      CHANNELS 3 Zrotation Xrotation Yrotation
                      End Site
                      {
                        OFFSET -1.6527 -0.5689 1.1317
                      }
                    }
                  }
                }
              }
            }
          }
        }
      }
    }
  }
  JOINT RightUpLeg
  {
    OFFSET -9.1966 3.8861 -0.7581
    CHANNELS 3 Zrotation Xrotation Yrotation
    JOINT RightLeg
    {
      OFFSET -0.7359 -41.0265 0
      CHANNELS 3 Zrotation Xrotation Yrotation
      JOINT RightFoot
      {
        OFFSET 0 -40.2855 0
        CHANNELS 3 Zrotation Xrotation Yrotation
        JOINT RightToeBase
        {
          OFFSET 0 -5.6122 11.7359
          CHANNELS 3 Zrotation Xrotation Yrotation
          End Site
          {
            OFFSET 0 0 7.8731
          }
        }
      }
    }
  }
  JOINT LeftUpLeg
  {
    OFFSET 9.1965 3.8864 -0.7581
    CHANNELS 3 Zrotation Xrotation Yrotation
    JOINT LeftLeg
    {
      OFFSET 0.7359 -41.0268 0
      CHANNELS 3 Zrotation Xrotation Yrotation
      JOINT LeftFoot
      {
        OFFSET 0 -40.2855 0
        CHANNELS 3 Zrotation Xrotation Yrotation
        JOINT LeftToeBase
        {
          OFFSET 0 -5.6122 11.7359
          CHANNELS 3 Zrotation Xrotation Yrotation
          End Site
          {
            OFFSET 0 0 7.8731
          }
        }
      }
    }
  }
}
MOTION
Frames:	6
Frame Time:	0.0333333
5.84602e-005 68.8428 3.50346 0 0 -0 0 0 -0 0 0 -0 0 0 -0 0 0 -0 0 0 -0 0 0 -0 0 0 -0 0 0 -0 0 0 -0 0 0 -0 0 0 -0 0 0 -0 0 0 -0 -0.0146107 -8.87603e-005 -2.63497e-007 2.99804e-018 -2.42657e-020 -1.42182e-022 0 0 -0 -0.0187562 -0.001176 5.858e-005 5.06224e-018 3.88251e-019 1.21329e-020 0 0 -0 -0.012269 -0.00324817 0.000675346 -1.74678e-018 3.88251e-019 -0 0 0 -0 0 0 -0 0 0 -0 0 0 -0 0 0 -0 0 0 -0 0 0 -0 0 0 -0 0 0 -0 0 0 -0 0 0 -0 0.0149955 -9.10982e-005 2.64101e-007 -9.69331e-018 1.21329e-020 -4.7394e-023 0 0 -0 0.0189956 -0.00119102 -5.96516e-005 -5.41541e-019 0 2.42657e-020 0 0 -0 0.0122698 -0.00324857 -0.000673756 -2.00796e-019 0 -1.94126e-019 0 0 -0 0 0 -0 0 0 -0 3.39842 1.33031 -0.0637918 -5.65207e-008 0.834868 -0.000436188 -3.39935 -2.16518 -0.0642563 -8.89002e-024 -1.18485e-023 -1.48106e-024 -3.39844 1.35642 0.0640283 -3.18788e-007 0.782166 -0.000588827 3.39931 -2.13858 0.0634662 1.1399e-023 0 -0 
9.33713 62.4849 -26.1691 -3.34276 -2.15261 41.7217 1.10465 1.03048 -0.059461 2.2109 2.05968 -0.138599 2.2109 2.05968 -0.138616 0.704071 8.06169 -13.8605 1.84945 1.4983 -0.131838 1.15037e-005 1.17752e-005 -5.98163e-006 -34.9521 0.703367 -18.5204 -6.76364 -3.4679 -48.3628 9.25819 -0.00111715 -4.44492 -8.96541e-007 -3.50813e-006 -5.45105e-008 -2.12803e-007 2.90126e-006 2.11029e-006 -8.96541e-007 -3.50813e-006 -5.45105e-008 -8.96541e-007 -3.50813e-006 -5.45105e-008 -0.014512 -8.31635e-005 2.8614e-006 -6.26607e-007 -2.70271e-006 -5.30402e-007 -8.96541e-007 -3.50813e-006 -5.45105e-008 -0.0188741 -0.00117371 6.19659e-005 -1.63985e-006 -4.04955e-006 -1.16217e-006 -8.96541e-007 -3.50813e-006 -5.45105e-008 -0.0124075 -0.00328625 0.000683696 -8.96432e-007 -3.50809e-006 -5.48718e-008 -8.96541e-007 -3.50813e-006 -5.45105e-008 -2.12803e-007 2.90126e-006 2.11029e-006 -8.96541e-007 -3.50813e-006 -5.45105e-008 1.15037e-005 1.17752e-005 -5.98163e-006 28.516 -0.000309293 13.6411 -7.09276e-008 1.3613e-006 37.4336 -5.57148 0.0192658 -1.85548 -9.02963e-008 -9.33136e-008 3.05794e-008 -7.22371e-008 -7.46509e-008 2.44635e-008 -1.08356e-007 -1.11976e-007 3.66953e-008 -9.02963e-008 -9.33136e-008 3.05794e-008 0.0149068 -9.32867e-005 7.09891e-007 -1.08356e-007 -1.11972e-007 3.67099e-008 -9.02963e-008 -9.33136e-008 3.05794e-008 0.0190673 -0.00119548 -5.37377e-005 -1.08355e-007 -1.1197e-007 3.6715e-008 -9.02963e-008 -9.33136e-008 3.05794e-008 0.0122037 -0.00323023 -0.000674912 -1.08354e-007 -1.11973e-007 3.67102e-008 -9.02963e-008 -9.33136e-008 3.05794e-008 -7.22371e-008 -7.46509e-008 2.44635e-008 -1.08356e-007 -1.11976e-007 3.66953e-008 0.247919 -16.3158 -8.50743 0.0984941 30.0216 -0.901402 -3.42052 -3.62202 5.4467 2.40167e-007 -1.88439e-006 -4.02781e-008 -5.79989 -3.10985 -0.373363 0.194112 13.9018 -4.22954 2.36237 6.57127 -3.96705 3.86441e-006 2.88719e-007 -2.74818e-006 
17.6428 55.8493 -57.5611 -4.79427 -0.664484 83.4045 2.20943 2.07174 -0.0772845 4.42599 4.13896 -0.234701 4.426 4.13896 -0.234739 5.26713 14.6875 -28.4514 3.70581 2.99656 -0.263942 -2.36396e-005 -2.07241e-005 3.82698e-006 -69.4817 1.18418 -37.047 -16.0999 1.17167 -96.3836 18.5162 -0.00221679 -8.88983 2.85525e-031 -1.19271e-015 1.37161e-014 -1.19191e-006 -4.40874e-007 1.10226e-006 -3.18055e-015 -1.19271e-015 1.44616e-014 2.85525e-031 -1.19271e-015 1.37161e-014 -0.0146528 -8.50006e-005 5.92422e-006 2.35868e-031 -2.38542e-015 5.66536e-015 2.85525e-031 -1.19271e-015 1.37161e-014 -0.0187882 -0.00118221 6.23101e-005 1.59028e-015 0 4.12478e-015 2.85525e-031 -1.19271e-015 1.37161e-014 -0.0122178 -0.00323352 0.000671781 3.18055e-015 -1.98785e-015 5.11871e-015 2.85525e-031 -1.19271e-015 1.37161e-014 -1.19191e-006 -4.40874e-007 1.10226e-006 -3.18055e-015 -1.19271e-015 1.44616e-014 -2.36396e-005 -2.07241e-005 3.82698e-006 57.0321 -0.000567357 27.2822 3.70333e-006 -1.02407e-005 74.8673 -11.1417 0.0384919 -3.71096 -3.52051e-007 -4.6312e-008 2.36296e-007 -3.52051e-007 -4.63121e-008 2.36296e-007 -3.52051e-007 -4.6312e-008 2.36296e-007 -3.52051e-007 -4.6312e-008 2.36296e-007 0.0150613 -8.94452e-005 -1.33802e-007 -3.52053e-007 -4.6281e-008 2.36302e-007 -3.52051e-007 -4.6312e-008 2.36296e-007 0.0190461 -0.00119643 -6.06948e-005 -3.52051e-007 -4.62728e-008 2.36307e-007 -3.52051e-007 -4.6312e-008 2.36296e-007 0.0123078 -0.00325737 -0.000678137 -3.52045e-007 -4.62883e-008 2.36311e-007 -3.52051e-007 -4.6312e-008 2.36296e-007 -3.52051e-007 -4.63121e-008 2.36296e-007 -3.52051e-007 -4.6312e-008 2.36296e-007 -7.99623 -31.5707 -19.1522 0.0419849 56.4232 -1.82204 -3.38172 -3.68638 11.0009 -1.59028e-015 9.14409e-015 1.59028e-015 -8.32665 -8.2932 -0.833052 2.83186 28.1003 -9.20436 2.77354 14.5177 -8.30221 -2.75232e-006 1.68461e-006 -6.81375e-007 
22.2748 51.3717 -79.9844 -7.00927 2.97739 112.364 2.98183 2.80615 -0.0650786 5.9776 5.60509 -0.27688 5.97761 5.60508 -0.276904 10.5028 17.7154 -39.2313 5.00896 3.98125 -0.351083 3.83622e-005 3.29898e-005 -1.69682e-005 -93.4723 1.28719 -50.0183 -18.5801 9.04001 -129.403 24.9967 -0.00294775 -12.0013 -6.36111e-015 -2.38542e-015 -3.18055e-015 -3.18055e-015 -7.95139e-016 -3.18055e-015 -3.18055e-015 -7.95139e-016 -5.1684e-015 -6.36111e-015 -2.38542e-015 -3.18055e-015 -0.0145251 -8.59266e-005 -4.60869e-006 0 0 -1.19271e-015 -6.36111e-015 -2.38542e-015 -3.18055e-015 -0.0186472 -0.00116488 6.00845e-005 6.36111e-015 1.35174e-014 -1.59028e-015 -6.36111e-015 -2.38542e-015 -3.18055e-015 -0.0121807 -0.00322401 0.000675134 -6.36111e-015 1.19271e-014 -1.98785e-015 -6.36111e-015 -2.38542e-015 -3.18055e-015 -3.18055e-015 -7.95139e-016 -3.18055e-015 -3.18055e-015 -7.95139e-016 -5.1684e-015 3.83622e-005 3.29898e-005 -1.69682e-005 76.9974 -0.00214141 36.9987 7.24672e-014 4.0165e-014 100.996 -15.0021 -0.00295587 -5.00192 1.98785e-015 6.36111e-015 5.56597e-015 3.97569e-016 6.36111e-015 -3.97569e-016 -3.18055e-015 9.54166e-015 3.97569e-015 1.98785e-015 6.36111e-015 5.56597e-015 0.0149539 -9.20786e-005 -6.8237e-007 -8.27121e-007 -2.67389e-006 -5.269e-007 1.98785e-015 6.36111e-015 5.56597e-015 0.0190534 -0.00119865 -6.16313e-005 -7.95139e-016 0 5.76476e-015 1.98785e-015 6.36111e-015 5.56597e-015 0.012128 -0.00321963 -0.000670418 1.59028e-015 -6.36111e-015 -1.78906e-015 1.98785e-015 6.36111e-015 5.56597e-015 3.97569e-016 6.36111e-015 -3.97569e-016 -3.18055e-015 9.54166e-015 3.97569e-015 -17.8346 -40.6906 -29.3725 0.0164517 74.5848 -2.5947 -3.362 -3.58136 14.893 2.28721e-006 -3.02911e-007 7.04246e-007 -10.4125 -11.9217 -1.17312 7.1404 37.645 -14.0405 3.8004 19.8978 -11.668 1.59028e-015 9.93923e-016 1.59028e-015 
23.4032 50.1547 -86.3681 -8.06855 4.28081 120.619 3.20229 3.01674 -0.0578094 6.42095 6.0255 -0.285177 6.42095 6.02551 -0.285156 12.2487 18.264 -42.3712 5.38078 4.10999 -0.362614 8.85041e-006 1.16912e-005 2.15179e-006 -100.31 1.27317 -53.7241 -18.1925 11.5057 -138.914 26.8483 -0.0031467 -12.8902 8.91794e-007 -6.25178e-007 -2.18809e-006 -3.18055e-015 0 -3.18055e-015 -8.91794e-007 6.25178e-007 2.18809e-006 8.91794e-007 -6.25178e-007 -2.18809e-006 -0.014531 -9.07924e-005 1.26461e-006 3.18055e-015 1.59028e-015 -3.18055e-015 8.91794e-007 -6.25178e-007 -2.18809e-006 -0.0188068 -0.00118091 5.65433e-005 1.32417e-031 4.77083e-015 -1.59028e-015 8.91794e-007 -6.25178e-007 -2.18809e-006 -0.0122547 -0.00324271 0.00067461 -3.18055e-015 -1.59028e-015 -7.95139e-016 8.91794e-007 -6.25178e-007 -2.18809e-006 -3.18055e-015 0 -3.18055e-015 -8.91794e-007 6.25178e-007 2.18809e-006 8.85041e-006 1.16912e-005 2.15179e-006 82.7113 -0.00579475 40.1736 -7.70333e-007 4.78699e-006 108.284 -16.0157 -0.145226 -5.35219 -0 0 2.98177e-015 1.85978e-006 -3.27218e-007 1.20046e-007 8.39947e-007 -3.33902e-007 -1.4398e-006 -0 0 2.98177e-015 0.0150027 -9.06184e-005 -1.39645e-006 8.39967e-007 -3.34091e-007 -1.43976e-006 -0 0 2.98177e-015 0.0190978 -0.00119528 -5.94499e-005 8.39959e-007 -3.34143e-007 -1.43976e-006 -0 0 2.98177e-015 0.0121177 -0.00320487 -0.000669237 8.39926e-007 -3.34054e-007 -1.43979e-006 -0 0 2.98177e-015 1.85978e-006 -3.27218e-007 1.20046e-007 8.39947e-007 -3.33902e-007 -1.4398e-006 -21.4114 -42.9222 -32.9003 0.00785278 79.7678 -2.83709 -3.35032 -3.55094 16.0053 -1.33302e-006 2.04225e-007 1.46976e-006 -11.0161 -12.9486 -1.27873 8.76534 40.2596 -15.714 4.25206 21.4065 -12.7029 4.30747e-006 -1.14785e-007 2.12379e-006 
22.8498 50.7589 -83.1799 -7.51074 3.61993 116.491 3.09208 2.91142 -0.0616159 6.1993 5.81522 -0.281259 6.1993 5.81522 -0.281255 11.3635 18.0086 -40.7991 5.1929 3.7252 -0.328647 -1.5103e-005 -1.00426e-005 3.0481e-006 -96.8919 1.28274 -51.8712 -18.4543 10.2773 -134.147 25.9225 -0.00305657 -12.4458 6.36111e-015 1.59028e-015 -7.95139e-016 3.18055e-015 1.59028e-015 7.95139e-016 6.36111e-015 4.77083e-015 -7.95139e-016 6.36111e-015 1.59028e-015 -7.95139e-016 -0.0146809 -9.45133e-005 -9.89145e-007 3.97252e-031 1.43125e-014 -1.59028e-015 6.36111e-015 1.59028e-015 -7.95139e-016 -0.0187485 -0.00117257 6.01149e-005 -6.36111e-015 0 7.95139e-016 6.36111e-015 1.59028e-015 -7.95139e-016 -0.012128 -0.00320776 0.000661411 3.18055e-015 -1.59028e-015 1.59028e-015 6.36111e-015 1.59028e-015 -7.95139e-016 3.18055e-015 1.59028e-015 7.95139e-016 6.36111e-015 4.77083e-015 -7.95139e-016 -1.5103e-005 -1.00426e-005 3.0481e-006 79.8741 -0.0109818 39.4239 9.41127e-007 -7.52038e-006 104.266 -15.3192 -0.34811 -5.138 -2.81157e-006 -9.26492e-006 -9.55383e-007 3.97569e-016 1.27222e-014 2.18663e-015 -2.33174e-006 1.44972e-007 -2.53566e-006 -2.81157e-006 -9.26492e-006 -9.55383e-007 0.0150132 -0.000102942 4.73993e-006 -2.33165e-006 1.44639e-007 -2.53568e-006 -2.81157e-006 -9.26492e-006 -9.55383e-007 0.0189769 -0.00118285 -5.93836e-005 -2.33164e-006 1.44543e-007 -2.53566e-006 -2.81157e-006 -9.26492e-006 -9.55383e-007 0.0122681 -0.00324953 -0.000675518 -2.33173e-006 1.44667e-007 -2.53562e-006 -2.81157e-006 -9.26492e-006 -9.55383e-007 3.97569e-016 1.27222e-014 2.18663e-015 -2.33174e-006 1.44972e-007 -2.53566e-006 -19.5628 -41.7641 -31.1158 0.0105685 77.1767 -2.70196 -3.35725 -3.56406 15.4492 1.88448e-006 -2.64844e-006 8.49345e-007 -10.7131 -12.4354 -1.22545 7.92575 38.9597 -14.8566 4.01804 20.6539 -12.181 6.49898e-006 2.19445e-006 3.33824e-006 
